<?xml version="1.0" standalone="no"?>
<!DOCTYPE svg PUBLIC "-//W3C//DTD SVG 20010904//EN"
 "http://www.w3.org/TR/2001/REC-SVG-20010904/DTD/svg10.dtd">
<svg version="1.0" xmlns="http://www.w3.org/2000/svg"
 width="204.000000pt" height="204.000000pt" viewBox="0 0 204.000000 204.000000"
 preserveAspectRatio="xMidYMid meet">
<metadata>
Created by potrace 1.11, written by Peter Selinger 2001-2013
</metadata>
<g transform="translate(0.000000,204.000000) scale(0.100000,-0.100000)"
fill="#000000" stroke="none">
<path d="M1103 2024 c-15 -16 -17 -48 -3 -39 6 3 10 1 10 -5 0 -6 4 -9 9 -6 5
3 11 -7 13 -22 3 -19 -3 -34 -19 -50 -12 -12 -26 -22 -30 -22 -31 -1 -91 -26
-116 -50 -27 -25 -30 -35 -30 -82 0 -44 7 -62 37 -107 20 -29 36 -57 36 -62 0
-19 16 -8 35 24 28 47 52 64 130 89 79 25 138 72 154 121 24 74 -11 180 -69
208 -36 18 -142 20 -157 3z"/>
<path d="M755 1567 c-70 -42 -135 -89 -135 -97 0 -6 -4 -10 -10 -10 -14 0 -99
-94 -137 -153 -57 -87 -101 -184 -119 -262 -39 -168 -40 -340 -4 -485 24 -98
105 -270 149 -318 17 -18 34 -38 38 -46 13 -22 156 -145 164 -141 3 3 14 -4
24 -15 10 -11 26 -20 37 -20 10 0 18 -4 18 -10 0 -26 95 -1 139 36 27 24 33
59 35 202 l1 116 67 4 67 3 3 -151 3 -152 32 -28 c49 -44 107 -49 169 -14 91
51 207 155 262 237 34 50 80 136 84 157 2 8 6 17 10 20 4 3 19 51 34 105 70
270 17 580 -135 786 -39 54 -110 129 -121 129 -6 0 -10 5 -10 10 0 6 -34 33
-76 60 -65 43 -84 50 -125 50 -40 0 -55 -5 -84 -31 -19 -17 -38 -44 -43 -61
-4 -16 -7 -90 -6 -164 l1 -134 -31 -1 c-17 0 -47 -2 -67 -5 l-36 -4 0 127 c-1
202 1 191 -42 234 -35 35 -44 39 -87 38 -27 0 -58 -6 -69 -12z"/>
</g>
</svg>
